<svg id="Capa_1" enable-background="new 0 0 512.243 512.243" height="512" viewBox="0 0 512.243 512.243" width="512" xmlns="http://www.w3.org/2000/svg"><g><g><path d="m389.372 430.966h-266.75c-34.394 0-62.375-27.981-62.375-62.375v-201.094c0-34.394 27.981-62.375 62.375-62.375h266.75c34.394 0 62.375 27.981 62.375 62.375v201.095c0 34.393-27.982 62.374-62.375 62.374zm-266.75-295.844c-17.852 0-32.375 14.523-32.375 32.375v201.095c0 17.852 14.523 32.375 32.375 32.375h266.75c17.852 0 32.375-14.523 32.375-32.375v-201.095c0-17.852-14.523-32.375-32.375-32.375z" fill="#3d444d"/></g><path d="m389.372 105.122h-133.375v30h133.375c17.852 0 32.375 14.523 32.375 32.375v201.095c0 17.852-14.523 32.375-32.375 32.375h-133.375v30h133.375c34.394 0 62.375-27.981 62.375-62.375v-201.095c0-34.394-27.982-62.375-62.375-62.375z" fill="#23272b"/><path d="m160.667 55.291v100.41c0 5.682 3.21 10.875 8.291 13.416l80.33 40.17c2.112 1.056 4.41 1.584 6.709 1.584s4.597-.528 6.709-1.584l80.33-40.17c5.081-2.541 8.291-7.734 8.291-13.416v-100.41z" fill="#00cb75"/><path d="m255.997 55.291v155.58c2.299 0 4.597-.528 6.709-1.584l80.33-40.17c5.081-2.541 8.291-7.734 8.291-13.416v-100.41z" fill="#00a78e"/><path d="m343.036 41.875-80.33-40.17c-4.224-2.111-9.194-2.111-13.418 0l-80.33 40.17c-5.082 2.541-8.292 7.735-8.291 13.417s3.21 10.875 8.292 13.416l80.33 40.16c2.111 1.056 4.409 1.583 6.708 1.583 2.298 0 4.596-.527 6.708-1.583l80.33-40.16c5.082-2.541 8.292-7.734 8.292-13.416s-3.21-10.876-8.291-13.417z" fill="#8ee26b"/><path d="m343.036 41.875-80.33-40.17c-2.113-1.056-4.41-1.565-6.709-1.558v110.304c2.298 0 4.596-.527 6.708-1.583l80.33-40.16c5.082-2.541 8.292-7.734 8.292-13.416s-3.21-10.876-8.291-13.417z" fill="#00cb75"/><path d="m0 356.541v100.41c0 5.682 3.21 10.875 8.291 13.416l80.33 40.17c2.112 1.056 4.41 1.584 6.709 1.584s4.597-.528 6.709-1.584l80.33-40.17c5.081-2.541 8.291-7.734 8.291-13.416v-100.41z" fill="#99f3fb"/><path d="m95.33 356.541v155.58c2.299 0 4.597-.528 6.709-1.584l80.33-40.17c5.081-2.541 8.291-7.734 8.291-13.416v-100.41z" fill="#78e3f5"/><path d="m182.369 343.125-80.33-40.17c-4.224-2.111-9.194-2.111-13.418 0l-80.33 40.17c-5.082 2.541-8.291 7.736-8.291 13.417s3.21 10.875 8.292 13.416l80.33 40.16c2.111 1.056 4.409 1.583 6.708 1.583s4.596-.527 6.708-1.583l80.33-40.16c5.082-2.541 8.292-7.734 8.292-13.416s-3.209-10.876-8.291-13.417z" fill="#cbfcff"/><path d="m182.369 343.125-80.33-40.17c-2.113-1.056-4.41-1.565-6.709-1.558v110.304c2.298 0 4.596-.527 6.708-1.583l80.33-40.16c5.082-2.541 8.292-7.734 8.292-13.416s-3.209-10.876-8.291-13.417z" fill="#99f3fb"/><path d="m321.583 356.541v100.41c0 5.682 3.21 10.875 8.291 13.416l80.33 40.17c2.112 1.056 4.41 1.584 6.709 1.584s4.597-.528 6.709-1.584l80.33-40.17c5.081-2.541 8.291-7.734 8.291-13.416v-100.41z" fill="#ff326c"/><path d="m416.913 356.541v155.58c2.299 0 4.597-.528 6.709-1.584l80.33-40.17c5.081-2.541 8.291-7.734 8.291-13.416v-100.41z" fill="#d92a50"/><path d="m503.952 343.125-80.33-40.17c-4.224-2.111-9.194-2.111-13.418 0l-80.33 40.17c-5.082 2.541-8.292 7.735-8.291 13.417s3.21 10.875 8.292 13.416l80.33 40.16c2.111 1.056 4.409 1.583 6.708 1.583s4.596-.527 6.708-1.583l80.33-40.16c5.082-2.541 8.292-7.734 8.292-13.416s-3.209-10.876-8.291-13.417z" fill="#fe6e63"/><path d="m503.952 343.125-80.33-40.17c-2.113-1.056-4.41-1.565-6.709-1.558v110.304c2.298 0 4.596-.527 6.708-1.583l80.33-40.16c5.082-2.541 8.292-7.734 8.292-13.416s-3.209-10.876-8.291-13.417z" fill="#ff326c"/></g></svg>